<?xml version="1.0" encoding="UTF-8"?>
<svg id="Camada_1" xmlns="http://www.w3.org/2000/svg" version="1.1" viewBox="0 0 841.89 595.28">
  <!-- Generator: Adobe Illustrator 29.6.1, SVG Export Plug-In . SVG Version: 2.1.1 Build 9)  -->
  <defs>
    <style>
      .st0 {
        fill: #00a19a;
      }

      .st1 {
        fill: #fff;
      }

      .st2 {
        fill: #f9b233;
      }

      .st3 {
        fill: #f39200;
      }
    </style>
  </defs>
  <g>
    <g>
      <path class="st0" d="M199.9,366.72c-5.04,1.64-10.25,2.97-15.49,3.97-.93.18-1.55,1.08-1.37,2.01.16.82.88,1.4,1.69,1.4.11,0,.22-.01.32-.03,5.38-1.02,10.73-2.4,15.91-4.08.9-.29,1.4-1.26,1.1-2.17-.29-.9-1.26-1.4-2.17-1.1Z"/>
      <path class="st0" d="M243.69,341.07c-7.18,6.71-15.16,12.61-23.73,17.54-3.8,2.19-7.74,4.19-11.72,5.96-.87.39-1.26,1.4-.87,2.27.29.64.91,1.02,1.57,1.02.23,0,.47-.05.7-.15,4.08-1.82,8.13-3.88,12.03-6.12,8.8-5.06,17-11.12,24.37-18,.69-.65.73-1.74.08-2.43-.65-.69-1.74-.73-2.43-.08Z"/>
      <path class="st0" d="M215.11,354.95c-.41-.86-1.44-1.22-2.3-.8-14.44,6.95-30.01,10.92-46.26,11.8-.95.05-1.68.86-1.62,1.81.05.92.81,1.63,1.72,1.63.03,0,.06,0,.09,0,16.71-.9,32.72-4.99,47.57-12.13.86-.41,1.22-1.44.8-2.3Z"/>
      <path class="st0" d="M251.51,324.82c-8.27,9.38-17.86,17.39-28.51,23.82-.81.49-1.07,1.55-.58,2.36.32.54.89.83,1.47.83.3,0,.61-.08.89-.25,10.95-6.61,20.81-14.85,29.31-24.49.63-.71.56-1.8-.15-2.43-.71-.63-1.8-.56-2.43.15Z"/>
      <path class="st0" d="M188.24,357.55c-.21-.93-1.14-1.5-2.06-1.29-8.59,1.99-17.55,2.99-26.65,2.99-1.56,0-3.15-.03-4.85-.1-.94-.05-1.75.7-1.78,1.65-.04.95.7,1.75,1.65,1.78,1.75.07,3.38.1,4.98.1,9.36,0,18.58-1.04,27.42-3.08.93-.21,1.5-1.14,1.29-2.06Z"/>
      <path class="st0" d="M255.95,310.86c-.77-.56-1.84-.38-2.4.39-10.66,14.78-24.17,26.52-40.15,34.9-5.76,3.02-11.78,5.56-17.9,7.53-.9.29-1.4,1.26-1.11,2.17.24.73.91,1.19,1.64,1.19.18,0,.35-.03.53-.08,6.31-2.04,12.51-4.65,18.44-7.76,16.46-8.63,30.37-20.72,41.34-35.94.56-.77.38-1.85-.39-2.4Z"/>
      <path class="st0" d="M255.9,298.12c-.82-.48-1.87-.22-2.36.6-10.48,17.67-25.46,31.97-43.33,41.34-15.58,8.17-32.63,12.32-50.68,12.32-4.49,0-9.02-.27-13.48-.79-.95-.11-1.8.56-1.91,1.51-.11.94.56,1.8,1.51,1.91,4.59.54,9.26.82,13.88.82,18.61,0,36.2-4.28,52.28-12.71,18.43-9.67,33.89-24.42,44.69-42.64.48-.82.21-1.87-.6-2.36Z"/>
      <path class="st0" d="M138.07,232.83c.12,0,.25-.01.37-.04,3.28-.73,6.64-1.18,9.98-1.34.87-.04,1.57-.73,1.63-1.6.3-4.29,1.07-8.54,2.28-12.64.27-.91-.25-1.87-1.16-2.14-.91-.27-1.87.25-2.14,1.16-1.14,3.86-1.91,7.84-2.29,11.87-3.03.22-6.07.66-9.05,1.32-.93.21-1.51,1.12-1.31,2.05.18.8.89,1.35,1.68,1.35Z"/>
      <path class="st0" d="M208.61,337.01c21.3-11.18,37.89-29.05,47.98-51.68.39-.87,0-1.88-.87-2.27-.87-.39-1.88,0-2.27.87-9.77,21.92-25.83,39.22-46.44,50.03-14.59,7.65-30.56,11.53-47.49,11.53-5.33,0-10.72-.4-16.04-1.19-1.23-.18-2.51-.42-3.81-.71-.93-.21-1.85.38-2.05,1.3-.21.93.38,1.85,1.3,2.05,1.38.31,2.75.56,4.06.75,5.48.81,11.04,1.22,16.53,1.22,17.48,0,34-4.01,49.08-11.93Z"/>
      <path class="st0" d="M155.04,233.93s.04,0,.06,0c.92,0,1.69-.73,1.72-1.66.26-7.61,2.11-14.93,5.49-21.74.42-.85.07-1.88-.78-2.3-.85-.42-1.88-.07-2.3.78-3.6,7.26-5.57,15.05-5.85,23.15-.03.95.71,1.75,1.66,1.78Z"/>
      <path class="st0" d="M133.54,241.25c.19,0,.38-.03.56-.1,5.53-1.92,11.3-2.89,17.16-2.89.95,0,1.72-.77,1.72-1.72s-.77-1.72-1.72-1.72c-6.24,0-12.4,1.04-18.29,3.08-.9.31-1.37,1.29-1.06,2.19.25.71.91,1.16,1.62,1.16Z"/>
      <path class="st0" d="M159.52,342.06c16.36,0,31.8-3.75,45.89-11.14,24.58-12.9,42.86-36.2,50.52-64.21.38-1.38,1.53-4-.26-4.78-1-.43-2.11.17-2.35,1.16-6.94,28.3-24.99,51.91-49.5,64.78-13.59,7.13-28.49,10.74-44.29,10.74-4.96,0-10.02-.37-15.03-1.11-3.31-.49-6.54-1.32-9.6-2.47-.89-.33-1.88.11-2.22,1-.33.89.11,1.88,1,2.22,3.29,1.24,6.75,2.13,10.31,2.66,5.18.76,10.4,1.15,15.53,1.15Z"/>
      <path class="st0" d="M160.24,235.43c.02.93.79,1.68,1.72,1.68.02,0,.03,0,.05,0,.95-.02,1.7-.81,1.67-1.76-.27-10.54,3.11-20.97,9.53-29.36.58-.75.43-1.83-.32-2.41-.76-.58-1.83-.43-2.41.32-6.89,9.02-10.52,20.22-10.23,31.54Z"/>
      <path class="st0" d="M128.83,248.91c.4.94,1.49,1.3,2.34.88,6.34-3.08,13.1-4.64,20.1-4.64,2.28,0,4.57.17,6.8.5.94.14,1.81-.51,1.95-1.45.14-.94-.51-1.81-1.45-1.95-2.4-.35-4.85-.53-7.3-.53-7.49,0-14.73,1.66-21.51,4.94-.8.29-1.32,1.34-.93,2.26Z"/>
      <path class="st0" d="M159.52,335.18c15.23,0,29.59-3.48,42.69-10.35,29.36-15.41,48.29-45.8,50.65-81.31.06-.95-.65-1.77-1.6-1.83-.95-.06-1.77.65-1.83,1.6-2.28,34.3-20.53,63.65-48.82,78.49-12.6,6.61-26.43,9.96-41.09,9.96-4.64,0-9.36-.35-14.02-1.03-4.97-.74-9.65-2.36-13.92-4.81-.82-.47-1.87-.19-2.35.63-.47.82-.19,1.87.63,2.35,4.64,2.67,9.73,4.43,15.13,5.23,4.83.71,9.72,1.07,14.52,1.07Z"/>
      <path class="st0" d="M128.61,258.89c.33,0,.66-.09.95-.29,8.11-5.37,17.82-7.56,27.5-6.16.82.12,1.64.18,2.45.18,1.73,0,3.23-.31,4.35-.89,3.5-1.83,6.92-8.11,6.7-16.57-.31-12.25,4.95-23.75,14.45-31.57.73-.6.84-1.69.23-2.42-.6-.73-1.69-.84-2.42-.23-10.32,8.5-16.04,21-15.7,34.32.19,7.41-2.73,12.32-4.86,13.43-.36.19-1.19.5-2.75.5-.64,0-1.29-.05-1.95-.15-10.55-1.53-21.09.85-29.9,6.69-.79.52-1.01,1.59-.48,2.38.33.5.88.77,1.44.77Z"/>
      <path class="st0" d="M159.52,328.3c14.11,0,27.4-3.22,39.49-9.56,30.07-15.78,48.15-48.56,47.19-85.54-.03-1.12-.11-2.25-.25-3.48-.07-.83-.79-1.57-1.71-1.57s-1.72.77-1.72,1.72c0,.07,0,.13.01.2.13,1.14.21,2.19.24,3.21.93,35.67-16.45,67.25-45.35,82.41-11.6,6.08-24.35,9.17-37.9,9.17-4.33,0-8.71-.32-13.01-.97-6.26-.92-12.05-3.59-16.75-7.72-.71-.63-1.8-.56-2.43.16-.63.71-.56,1.8.16,2.43,5.2,4.56,11.6,7.52,18.51,8.53,4.47.67,9.02,1,13.52,1Z"/>
      <path class="st0" d="M128.1,267.97c.41,0,.83-.15,1.16-.45,6.08-5.56,13.89-8.62,22.01-8.62,1.61,0,3.22.12,4.79.35,1.13.17,2.3.25,3.45.25,2.89,0,5.43-.57,7.55-1.68,6.48-3.39,10.64-12.57,10.37-22.84-.35-13.71,8-26.28,20.78-31.29.88-.35,1.32-1.34.97-2.23-.35-.88-1.34-1.32-2.23-.97-14.12,5.53-23.35,19.43-22.97,34.58.24,8.99-3.19,16.9-8.54,19.7-1.62.85-3.62,1.29-5.95,1.29-.99,0-1.98-.07-2.95-.22-1.74-.26-3.52-.39-5.3-.39-8.98,0-17.62,3.38-24.33,9.52-.7.64-.75,1.73-.11,2.43.34.37.8.56,1.27.56Z"/>
      <path class="st0" d="M147.01,320.5c4.17.62,8.38.93,12.51.93,12.98,0,25.2-2.95,36.3-8.78,27.72-14.55,44.39-44.92,43.5-79.27-.21-7.98-3.5-15.33-9.24-20.65l-.24-.23-.05-.02c-2.54-2.31-5.42-4.13-8.58-5.41-.42-.17-.85-.33-1.28-.48l-.29-.14h-.13c-3.01-1.02-6.18-1.54-9.44-1.54-.23,0-.47,0-.75,0-16.11.42-28.88,13.88-28.47,29.99.31,11.73-4.49,21.92-12.22,25.98-2.05,1.08-4.4,1.74-6.97,1.98-.95.09-1.64.92-1.56,1.87.09.95.92,1.64,1.87,1.56,3.03-.28,5.81-1.07,8.26-2.36,8.88-4.66,14.4-16.08,14.06-29.11-.37-14.22,10.9-26.09,25.12-26.46.25,0,.45,0,.67,0,2.95,0,5.81.48,8.52,1.42,3.24,1.58,6.32,3.43,9.16,5.5,5.06,4.73,7.94,11.19,8.12,18.2.86,33.03-15.11,62.21-41.66,76.14-10.61,5.56-22.28,8.38-34.7,8.38-3.96,0-8-.3-12.01-.89-6.82-1.01-12.83-4.6-16.94-10.13-.36-.49-.71-1-1.03-1.5-.51-.8-1.58-1.03-2.38-.52-.8.51-1.03,1.58-.52,2.38.36.56.75,1.13,1.16,1.69,4.66,6.26,11.48,10.34,19.2,11.48Z"/>
      <path class="st0" d="M127.17,278.25c.29.18.61.27.93.27.57,0,1.12-.28,1.45-.79,4.74-7.38,13.07-11.96,21.72-11.96,1.28,0,2.55.09,3.78.28.94.14,1.81-.51,1.95-1.45.14-.94-.51-1.81-1.45-1.95-1.4-.21-2.84-.31-4.29-.31-9.96,0-19.16,5.06-24.62,13.54-.51.8-.28,1.86.52,2.38Z"/>
      <path class="st0" d="M171.85,266.96c-3.62,1.9-7.77,2.86-12.34,2.86-1.64,0-3.31-.12-4.96-.37-1.08-.16-2.19-.24-3.28-.24-11,0-20.5,8.21-22.1,19.1-.87,5.91.61,11.8,4.17,16.6,3.56,4.79,8.78,7.91,14.68,8.78,3.81.56,7.69.85,11.51.85,11.87,0,23-2.69,33.1-7.98,25.39-13.32,40.65-41.29,39.82-73-.32-12.21-10.14-21.78-22.36-21.78-.18,0-.36,0-.57,0-12.32.32-22.09,10.61-21.77,22.93.37,14.33-5.87,26.98-15.9,32.25ZM191.19,234.63c-.27-10.43,7.99-19.13,18.42-19.4.18,0,.33,0,.49,0,10.34,0,18.65,8.09,18.92,18.43.79,30.39-13.77,57.16-37.98,69.87-9.6,5.04-20.2,7.59-31.51,7.59-3.65,0-7.35-.27-11-.81-5-.74-9.41-3.38-12.42-7.43-3.01-4.06-4.27-9.04-3.53-14.04,1.36-9.21,9.4-16.16,18.7-16.16.92,0,1.86.07,2.78.2,1.82.27,3.66.4,5.46.4,5.13,0,9.82-1.1,13.94-3.26,11.18-5.87,18.15-19.76,17.74-35.38Z"/>
      <path class="st0" d="M153.54,276.26c-.75-.11-1.52-.17-2.27-.17-7.61,0-14.19,5.68-15.3,13.22-.6,4.09.42,8.17,2.89,11.49,2.47,3.32,6.08,5.48,10.16,6.08,3.48.51,7.02.78,10.5.78,10.74,0,20.8-2.42,29.91-7.2,4.89-2.57,9.44-5.78,13.53-9.57.7-.64.74-1.73.1-2.43-.64-.7-1.73-.74-2.43-.1-3.87,3.58-8.17,6.62-12.79,9.05-8.61,4.51-18.13,6.8-28.31,6.8-3.32,0-6.68-.25-10-.74-3.18-.47-5.99-2.15-7.9-4.73-1.92-2.58-2.72-5.75-2.25-8.94.86-5.86,5.98-10.28,11.9-10.28.59,0,1.18.04,1.77.13,2.15.32,4.33.48,6.47.48,6.25,0,12.02-1.36,17.13-4.05,13.49-7.08,21.89-23.42,21.42-41.65-.17-6.64,5.09-12.17,11.72-12.35.11,0,.21,0,.31,0,6.58,0,11.87,5.15,12.04,11.73.48,18.57-5.24,35.94-16.12,48.9-.61.73-.52,1.81.21,2.42.73.61,1.81.52,2.42-.21,11.42-13.6,17.43-31.79,16.92-51.2-.22-8.45-7.02-15.08-15.48-15.08-.13,0-.25,0-.39,0-8.53.22-15.29,7.34-15.07,15.87.44,16.93-7.24,32.05-19.58,38.52-4.62,2.42-9.84,3.65-15.54,3.65-1.97,0-3.98-.15-5.97-.44Z"/>
      <path class="st0" d="M178.24,279.15c-9.48,4.98-19.21,4.88-25.71,3.92-2.27-.34-4.54.23-6.39,1.6-1.84,1.37-3.04,3.38-3.38,5.65-.34,2.27.23,4.54,1.6,6.38,1.37,1.84,3.38,3.04,5.65,3.38,3.15.47,6.35.7,9.49.7,9.62,0,18.6-2.16,26.71-6.41,20.71-10.87,33.15-34.03,32.46-60.46-.12-4.73-4.08-8.5-8.82-8.37-4.74.12-8.5,4.08-8.37,8.82.51,19.53-8.62,37.11-23.26,44.79ZM204.94,234.27c-.07-2.84,2.18-5.22,5.02-5.29,2.86-.07,5.22,2.18,5.29,5.02.65,25.11-11.08,47.08-30.62,57.33-7.61,3.99-16.06,6.02-25.11,6.02-2.98,0-6.01-.22-8.99-.66-1.36-.2-2.57-.92-3.39-2.03-.82-1.11-1.16-2.47-.96-3.83.2-1.36.92-2.57,2.03-3.39.9-.67,1.96-1.02,3.06-1.02.25,0,.51.02.77.06,7,1.03,17.51,1.13,27.81-4.28,15.79-8.28,25.64-27.09,25.1-47.92Z"/>
      <path class="st0" d="M208.12,252.34c.13.03.26.04.38.04.79,0,1.49-.54,1.68-1.34,1.24-5.48,1.8-11.18,1.64-16.95-.02-.95-.81-1.68-1.76-1.67-.95.02-1.7.81-1.67,1.76.14,5.49-.38,10.91-1.56,16.1-.21.93.37,1.85,1.3,2.06Z"/>
      <path class="st0" d="M151.53,289.87c-.94-.14-1.81.51-1.95,1.45-.14.94.51,1.81,1.45,1.95,2.48.37,5.35.63,8.49.63,6.98,0,15.28-1.3,23.52-5.62,10.74-5.64,19.35-15.53,24.24-27.84.35-.88-.08-1.88-.96-2.23-.88-.35-1.88.08-2.23.96-4.58,11.55-12.62,20.81-22.64,26.07-11.12,5.84-22.4,5.74-29.91,4.64Z"/>
    </g>
    <g>
      <g>
        <path class="st2" d="M169.8,359.7c-1.08.17-1.82,1.19-1.65,2.27.01.08,1.19,8.11-3.85,14.24-3.66,4.46-9.72,6.92-18.01,7.33-1.11-1.1-3.01-2.47-4.22-.66-1.8,2.68-6.25,10.77-4.59,11.95,1.13.79,5.15-4.16,7.65-7.47.25.11.52.18.81.18.03,0,.05,0,.08,0,9.71-.4,16.91-3.37,21.38-8.84,6.16-7.54,4.73-16.95,4.66-17.35-.17-1.08-1.19-1.82-2.27-1.64Z"/>
        <path class="st2" d="M244.74,386.46c-.37-1.5-8.28.05-12.08.89l-16.56-32.02c-.5-.97-1.7-1.35-2.68-.85-.97.5-1.36,1.7-.85,2.68l17.77,34.35c.35.68,1.05,1.07,1.76,1.07.17,0,.35-.03.52-.08.24.03.5.02.8-.06,3.13-.84,11.8-4,11.31-5.98Z"/>
      </g>
      <path class="st2" d="M288.57,249.79c-1-.45-2.18,0-2.62,1l-1.22,2.72-.69-3.22c-.23-1.07-1.29-1.75-2.36-1.52-1.07.23-1.75,1.29-1.52,2.36l.97,4.52-1.1-.7c-.92-.59-2.15-.32-2.74.61-.59.92-.32,2.15.61,2.74l4.04,2.57c-3.26,24.21-14.39,36.67-33.11,37.01-1.1.02-1.97.92-1.95,2.02.02,1.08.9,1.95,1.98,1.95.01,0,.02,0,.04,0,14.62-.27,32.89-7.68,37.11-41.42l3.58-8.01c.45-1,0-2.18-1-2.62Z"/>
      <g>
        <path class="st3" d="M155.36,310.77l-59.12-11.92s-3.16.18-5.17,6.36c-2.02,6.18-1.84,54.09-1.84,54.09l59.75,8.02.53-1.84,2.99.3,4.17-44.39s1.99-3.98-1.3-10.64Z"/>
        <path class="st2" d="M156.67,321.41s-.1-5.9-1.41-5.85c-1.31.05-2.46,4.06-2.46,4.06l-3.3,45.87,2.99.3,4.17-44.39Z"/>
        <polygon class="st1" points="155.39 320.27 152.8 319.62 149.62 363.95 151.36 364.11 155.39 320.27"/>
      </g>
      <path class="st2" d="M135.14,301.85c-.39-1.02-1.54-1.54-2.56-1.15-11.02,4.18-23.89,15.37-22.77,44.9l-2.24,8.48c-.28,1.06.35,2.15,1.41,2.43.17.04.34.07.51.07.88,0,1.68-.59,1.92-1.48l.76-2.88,1.2,3.07c.31.78,1.06,1.26,1.85,1.26.24,0,.49-.04.72-.14,1.02-.4,1.52-1.55,1.12-2.57l-1.69-4.3,1.2.51c.26.11.52.16.78.16.77,0,1.5-.45,1.83-1.2.43-1.01-.03-2.17-1.04-2.61l-4.4-1.89c-.6-21.28,6.2-34.77,20.24-40.1,1.03-.39,1.54-1.53,1.15-2.56Z"/>
    </g>
  </g>
  <g>
    <path class="st3" d="M341.16,271.33c.18.14.34.26.48.35.14.09.3.19.48.3,3.23,1.51,4.99,4.04,5.28,7.59.07.97.12,1.93.13,2.88.02.95,0,1.91-.03,2.88,0,.86-.18,1.67-.54,2.42-.36.75-.77,1.49-1.24,2.21-1.15,1.61-2.49,2.96-4.01,4.04-1.53,1.08-3.29,1.78-5.3,2.1-.93.18-1.88.29-2.83.32-.95.04-1.91.05-2.88.05-1.79.04-3.6.04-5.41.03-1.81-.02-3.67-.04-5.57-.08-.5,0-1.01-.02-1.53-.05-.52-.04-1.05-.09-1.59-.16-.83-.07-1.41-.27-1.75-.59-.34-.32-.55-.95-.62-1.88-.04-.39-.05-.82-.03-1.27.02-.45,0-.89-.03-1.32-.4-4.38-.64-8.73-.73-13.05-.09-4.32-.12-8.66-.08-13,0-1.83-.02-3.64-.05-5.44-.04-1.79-.05-3.59-.05-5.38v-.92c0-.32.02-.65.05-.97.14-.72.38-1.21.7-1.48s.84-.4,1.56-.4c3.05.11,6.09.13,9.12.08,3.03-.05,6.04.1,9.02.46,4.02.54,6.92,2.03,8.69,4.47,1.78,2.44,2.31,5.62,1.59,9.53-.18.9-.49,1.79-.94,2.66-.45.88-.87,1.73-1.27,2.56-.07.18-.17.35-.3.51-.13.16-.24.35-.35.57ZM327.22,267.29c.79-.04,1.56-.06,2.32-.08s1.51-.1,2.26-.24c.75-.11,1.22-.43,1.4-.97.18-.54.07-1.11-.32-1.72-.18-.29-.39-.56-.65-.81-.25-.25-.54-.43-.86-.54-.72-.22-1.45-.3-2.18-.24-.74.05-1.46.12-2.18.19.04.83.07,1.57.11,2.23.04.67.07,1.39.11,2.18ZM327.6,283.98c.72,0,1.4.02,2.04.05.65.04,1.29.02,1.94-.05.72-.07,1.31-.27,1.78-.59.47-.32.73-.68.81-1.08.07-.5-.09-1.01-.48-1.53-.4-.52-.93-.91-1.62-1.16-.14-.07-.32-.11-.54-.11-.65-.07-1.29-.11-1.94-.11h-1.99v4.58Z"/>
    <path class="st3" d="M367.7,291.57c0,.47-.02.94-.05,1.43-.04.49-.09.94-.16,1.37-.18.72-.47,1.23-.86,1.53-.4.3-.95.46-1.67.46h-11.57c-1.26,0-2.09-.22-2.5-.65-.41-.43-.64-1.31-.67-2.64-.07-6.17-.08-12.19-.03-18.06.05-5.87-.03-11.74-.24-17.63-.04-.72-.06-1.42-.08-2.1-.02-.68-.03-1.38-.03-2.1.04-.93.22-1.55.56-1.86.34-.3.98-.46,1.91-.46,2.26,0,4.4,0,6.43-.03,2.03-.02,4.15-.03,6.38-.03,1,0,1.66.15,1.96.46.31.31.46.94.46,1.91-.07,6.57-.05,13.03.08,19.38.13,6.35.15,12.69.08,19Z"/>
    <path class="st3" d="M398.17,271.33c.18.14.34.26.48.35.14.09.3.19.48.3,3.23,1.51,4.99,4.04,5.28,7.59.07.97.12,1.93.13,2.88.02.95,0,1.91-.03,2.88,0,.86-.18,1.67-.54,2.42-.36.75-.77,1.49-1.24,2.21-1.15,1.61-2.49,2.96-4.01,4.04s-3.29,1.78-5.3,2.1c-.93.18-1.88.29-2.83.32-.95.04-1.91.05-2.88.05-1.79.04-3.6.04-5.41.03-1.81-.02-3.67-.04-5.57-.08-.5,0-1.01-.02-1.53-.05-.52-.04-1.05-.09-1.59-.16-.83-.07-1.41-.27-1.75-.59-.34-.32-.55-.95-.62-1.88-.04-.39-.05-.82-.03-1.27.02-.45,0-.89-.03-1.32-.4-4.38-.64-8.73-.73-13.05-.09-4.32-.12-8.66-.08-13,0-1.83-.02-3.64-.05-5.44-.04-1.79-.05-3.59-.05-5.38v-.92c0-.32.02-.65.05-.97.14-.72.38-1.21.7-1.48s.84-.4,1.56-.4c3.05.11,6.09.13,9.12.08,3.03-.05,6.04.1,9.02.46,4.02.54,6.92,2.03,8.69,4.47,1.78,2.44,2.31,5.62,1.59,9.53-.18.9-.49,1.79-.94,2.66s-.87,1.73-1.27,2.56c-.07.18-.17.35-.3.51-.13.16-.24.35-.35.57ZM384.22,267.29c.79-.04,1.56-.06,2.32-.08s1.51-.1,2.26-.24c.75-.11,1.22-.43,1.4-.97s.07-1.11-.32-1.72c-.18-.29-.39-.56-.65-.81-.25-.25-.54-.43-.86-.54-.72-.22-1.45-.3-2.18-.24-.74.05-1.46.12-2.18.19.04.83.07,1.57.11,2.23.04.67.07,1.39.11,2.18ZM384.6,283.98c.72,0,1.4.02,2.04.05.65.04,1.29.02,1.94-.05.72-.07,1.31-.27,1.78-.59.47-.32.73-.68.81-1.08.07-.5-.09-1.01-.48-1.53-.4-.52-.93-.91-1.62-1.16-.14-.07-.32-.11-.54-.11-.65-.07-1.29-.11-1.94-.11h-1.99v4.58Z"/>
    <path class="st3" d="M430.78,279.83h5.71c.82,0,1.41.17,1.75.51.34.34.55.92.62,1.75.07.39.11.79.11,1.18v6.11c0,1.63-.04,3.29-.11,4.98,0,.82-.16,1.39-.48,1.7-.32.31-.9.46-1.72.46h-13.16c-4.36,0-8.77-.04-13.21-.11-.18,0-.33.02-.46.05s-.28.05-.46.05c-.72-.07-1.23-.25-1.53-.54-.31-.29-.48-.79-.51-1.51-.07-2.04-.14-4.06-.22-6.06-.07-1.99-.11-4.01-.11-6.06-.07-3.3-.07-6.58,0-9.85.07-3.27.11-6.57.11-9.9,0-1.54-.04-3.09-.11-4.63-.07-1.54-.14-3.09-.22-4.63-.04-1.08.13-1.81.51-2.21.38-.39,1.08-.57,2.13-.54,2.26,0,4.54.01,6.84.03,2.3.02,4.59.03,6.89.03,1.04.04,1.75.24,2.13.62.38.38.56,1.1.56,2.18-.04,3.05-.07,6.07-.11,9.07-.04,3-.07,5.98-.11,8.96-.07,1.36-.09,2.75-.05,4.15.04,1.4.05,2.8.05,4.2h5.17Z"/>
    <path class="st3" d="M459.26,291.57c0,.47-.02.94-.05,1.43-.04.49-.09.94-.16,1.37-.18.72-.47,1.23-.86,1.53-.4.3-.95.46-1.67.46h-11.57c-1.26,0-2.09-.22-2.5-.65-.41-.43-.64-1.31-.67-2.64-.07-6.17-.08-12.19-.03-18.06.05-5.87-.03-11.74-.24-17.63-.04-.72-.06-1.42-.08-2.1s-.03-1.38-.03-2.1c.04-.93.22-1.55.56-1.86.34-.3.98-.46,1.91-.46,2.26,0,4.4,0,6.43-.03,2.03-.02,4.15-.03,6.38-.03,1,0,1.66.15,1.96.46s.46.94.46,1.91c-.07,6.57-.05,13.03.08,19.38.13,6.35.15,12.69.08,19Z"/>
    <path class="st3" d="M496.51,291.35c-1.04,1.87-2.37,3.16-3.98,3.88-1.61.72-3.39,1.13-5.33,1.24-2.37.18-4.76.22-7.16.13-2.4-.09-4.83-.1-7.27-.03-1.54.04-2.92-.29-4.12-.97-1.2-.68-2.23-1.57-3.09-2.66-.86-1.1-1.53-2.31-2.02-3.63-.48-1.33-.78-2.64-.89-3.93-.36-3.34-.54-6.65-.54-9.93s.09-6.59.27-9.93c.07-2.04.37-4,.89-5.87.52-1.86,1.46-3.62,2.83-5.27.68-.86,1.51-1.53,2.48-1.99.97-.47,1.99-.82,3.07-1.05,1.08-.23,2.17-.38,3.28-.46,1.11-.07,2.15-.14,3.12-.22,1.43-.11,2.85-.15,4.25-.13,1.4.02,2.83.03,4.31.03,1.58,0,3.03.25,4.36.75,1.33.5,2.48,1.21,3.44,2.13.97.91,1.74,2.03,2.32,3.34.57,1.31.92,2.75,1.02,4.33.29,4.05.48,7.98.59,11.76.11,3.79.02,7.69-.27,11.71-.07,1.26-.22,2.44-.43,3.55-.22,1.11-.59,2.19-1.13,3.23ZM484.13,267.29c-.14-1.26-.57-2.12-1.27-2.58-.7-.47-1.45-.62-2.26-.46-.81.16-1.53.6-2.18,1.32-.65.72-.97,1.61-.97,2.69.04,1.65.05,3.29.05,4.93s.02,3.31.05,5.03c0,1.76.35,3.02,1.05,3.8.7.77,1.46,1.14,2.29,1.1.83-.04,1.59-.44,2.29-1.21.7-.77,1.05-1.84,1.05-3.2.04-1.83.05-3.73.03-5.71-.02-1.97-.06-3.88-.13-5.71Z"/>
    <path class="st3" d="M528.59,272.68c.07,3.3.14,6.57.22,9.8.07,3.23.12,6.5.16,9.8,0,1.61-.32,2.74-.97,3.39-.65.65-1.78.97-3.39.97-3.09,0-6.15-.11-9.2-.32-.32,0-.64-.03-.94-.08-.3-.05-.62-.12-.94-.19-.61-.18-1.04-.42-1.29-.73-.25-.3-.38-.76-.38-1.37-.04-.5-.05-1.01-.03-1.53.02-.52.03-1.03.03-1.53v-23.47h-3.5c-.72,0-1.45.01-2.18.03s-1.5,0-2.29-.08c-.97-.14-1.7-.48-2.21-1-.5-.52-.79-1.3-.86-2.34-.07-1.69-.11-3.37-.11-5.06s.02-3.39.05-5.11c.04-1.22.33-2.07.89-2.56.56-.48,1.43-.71,2.61-.67,4.7.04,9.37.06,14.02.08s9.32.06,14.02.13c.5,0,1.02-.02,1.56-.05.54-.04,1.06-.07,1.56-.11.9-.07,1.61.09,2.15.48.54.4.84,1.02.92,1.88.11.57.14,1.18.11,1.8-.04.63-.05,1.25-.05,1.86-.04,1.26-.07,2.49-.11,3.69-.04,1.2-.11,2.39-.22,3.58-.11,1.04-.34,1.7-.7,1.96-.36.27-1.08.42-2.15.46-1.08.04-2.17.09-3.28.16-1.11.07-2.28.14-3.5.22v5.92Z"/>
    <path class="st3" d="M553.72,267.99c1.65.18,3.29.28,4.92.3,1.63.02,3.26.05,4.87.08.9.04,1.49.19,1.78.46.29.27.47.82.54,1.64.07,1.26.12,2.5.13,3.71.02,1.22.04,2.48.08,3.77,0,1.08-.52,1.69-1.56,1.83-.54.07-1.06.12-1.56.13-.5.02-1.02.03-1.56.03-1.26.07-2.49.09-3.69.05-1.2-.04-2.43-.05-3.69-.05v1.4c1.94.14,3.87.21,5.79.19,1.92-.02,3.85,0,5.79.03.72,0,1.43.02,2.15.05.72.04,1.42.09,2.1.16.9.11,1.56.38,1.99.81.43.43.65,1.08.65,1.94.04,3.12.04,6.24,0,9.37-.04,1.76-1,2.64-2.91,2.64h-24.6c-1.18,0-2.06-.27-2.64-.81-.57-.54-.95-1.38-1.13-2.53-.11-1.04-.21-2.08-.3-3.12-.09-1.04-.12-2.1-.08-3.18.07-5.13.13-10.24.19-15.34.05-5.09.12-10.23.19-15.39v-.56c0-.2.04-.4.11-.62.14-1.54.55-2.64,1.21-3.28.66-.65,1.78-1,3.36-1.08,2.33-.04,4.62-.04,6.86-.03,2.24.02,4.53,0,6.86-.03,1,0,2.04-.03,3.09-.08,1.06-.05,2.11-.08,3.15-.08.72,0,1.43.02,2.13.05.7.04,1.39.09,2.07.16.57.04,1,.22,1.27.54.27.32.46.68.56,1.08.11.29.17.61.19.97s.05.7.08,1.02v8.4c-.04,1.15-.27,1.96-.7,2.42-.43.47-1.24.7-2.42.7-4.41-.04-8.86-.14-13.35-.32h-1.94v2.58Z"/>
    <path class="st3" d="M574.79,269.07c.27-1.65.67-3.28,1.21-4.9.65-2.19,1.6-4.15,2.85-5.89,1.26-1.74,2.78-3.26,4.58-4.55,2.26-1.65,4.66-2.69,7.18-3.12,2.53-.43,4.98-.36,7.35.22,2.37.57,4.58,1.61,6.62,3.12,2.05,1.51,3.73,3.37,5.06,5.6.39.65.55,1.24.46,1.78s-.39,1.08-.89,1.61c-1.15,1.15-2.28,2.26-3.39,3.34-1.11,1.08-2.23,2.17-3.34,3.28-.57.5-1.02.73-1.35.67-.32-.05-.63-.44-.92-1.16-.72-1.69-1.92-2.92-3.61-3.71-1-.5-1.88-.62-2.61-.35-.74.27-1.35.74-1.83,1.43-.49.68-.87,1.47-1.16,2.37-.29.9-.48,1.71-.59,2.42-.14.93-.18,1.85-.11,2.75.07.9.14,1.81.22,2.75,0,.18,0,.33.03.46.02.13.04.28.08.46.39,1.94,1.24,3.17,2.53,3.69,1.29.52,2.76.26,4.41-.78.39-.29.78-.59,1.16-.92.38-.32.76-.65,1.16-.97.61-.54,1.12-.81,1.53-.81s.89.32,1.43.97c1.04,1.18,2.06,2.41,3.07,3.69,1,1.27,2.01,2.58,3.01,3.9.65.83.94,1.52.89,2.07-.05.56-.42,1.23-1.1,2.02-1.79,2.01-3.82,3.59-6.08,4.74-2.26,1.15-4.59,1.84-7,2.07-2.4.23-4.78,0-7.13-.73-2.35-.72-4.49-1.97-6.43-3.77-2.48-2.08-4.32-4.45-5.52-7.11-1.2-2.66-1.86-5.62-1.96-8.88-.04-.22-.05-.44-.05-.67s-.02-.49-.05-.78v-1.24c-.07-1.72.03-3.41.3-5.06Z"/>
    <path class="st3" d="M685.22,281.93c1.43.61,2.36,1.45,2.77,2.53.41,1.08.62,2.26.62,3.55,0,1.04.03,1.97.08,2.8.05.83.08,1.74.08,2.75-.04,1-.21,1.72-.51,2.15-.31.43-.92.66-1.86.7-3.26.11-6.6.11-10.01,0-.93-.04-1.67-.2-2.21-.48-.54-.29-.84-.9-.92-1.83-.11-1.04-.13-2.15-.08-3.34.05-1.18.04-2.3-.03-3.34,0-1.15-.26-1.92-.78-2.31-.52-.39-1.32-.47-2.4-.22.04.79.07,1.48.11,2.07.04.59.07,1.3.11,2.13.07,1.29.07,2.66,0,4.09-.07.9-.34,1.61-.81,2.13s-1.17.82-2.1.89c-1.51.11-3.01.17-4.49.19-1.49.02-3.01-.03-4.55-.13-.97-.04-1.66-.29-2.07-.75-.41-.47-.62-1.22-.62-2.26.07-4.63.11-9.13.11-13.51s.02-8.88.05-13.51v-12.11c0-1.08.22-1.85.67-2.32.45-.47,1.19-.72,2.23-.75,2.12-.11,4.2-.19,6.24-.24,2.05-.05,4.11-.12,6.19-.19h3.15c1.06,0,2.13.02,3.2.05,1.25,0,2.47.17,3.63.51,1.17.34,2.29.82,3.36,1.43,1,.61,1.81,1.33,2.42,2.15.61.83,1.13,1.72,1.56,2.69.5,1.15.92,2.58,1.27,4.31.34,1.72.56,3.51.67,5.36.11,1.85.09,3.62-.05,5.33-.14,1.71-.45,3.09-.92,4.17-.86,1.9-2.24,3.68-4.14,5.33ZM671.33,272.68c1.26.68,2.27.77,3.04.27.77-.5,1.18-1.49,1.21-2.96.04-.86.04-1.76,0-2.69-.04-.93-.13-1.87-.27-2.8-.29-1.94-1.42-2.71-3.39-2.31-.47.07-.81.21-1.02.4s-.31.55-.27,1.05c.11,1.51.22,3.01.35,4.52.13,1.51.24,3.01.35,4.52Z"/>
    <path class="st3" d="M710.57,291.57c0,.47-.02.94-.05,1.43-.04.49-.09.94-.16,1.37-.18.72-.47,1.23-.86,1.53-.4.3-.95.46-1.67.46h-11.57c-1.26,0-2.09-.22-2.5-.65-.41-.43-.64-1.31-.67-2.64-.07-6.17-.08-12.19-.03-18.06.05-5.87-.03-11.74-.24-17.63-.04-.72-.06-1.42-.08-2.1s-.03-1.38-.03-2.1c.04-.93.22-1.55.56-1.86.34-.3.98-.46,1.91-.46,2.26,0,4.4,0,6.43-.03,2.03-.02,4.15-.03,6.38-.03,1,0,1.66.15,1.96.46.31.31.46.94.46,1.91-.07,6.57-.05,13.03.08,19.38.13,6.35.15,12.69.08,19Z"/>
    <path class="st3" d="M747.82,291.35c-1.04,1.87-2.37,3.16-3.98,3.88-1.61.72-3.39,1.13-5.33,1.24-2.37.18-4.76.22-7.16.13-2.4-.09-4.83-.1-7.27-.03-1.54.04-2.92-.29-4.12-.97-1.2-.68-2.23-1.57-3.09-2.66-.86-1.1-1.53-2.31-2.02-3.63-.48-1.33-.78-2.64-.89-3.93-.36-3.34-.54-6.65-.54-9.93s.09-6.59.27-9.93c.07-2.04.37-4,.89-5.87.52-1.86,1.46-3.62,2.83-5.27.68-.86,1.51-1.53,2.48-1.99.97-.47,1.99-.82,3.07-1.05,1.08-.23,2.17-.38,3.28-.46,1.11-.07,2.15-.14,3.12-.22,1.43-.11,2.85-.15,4.25-.13,1.4.02,2.83.03,4.31.03,1.58,0,3.03.25,4.36.75,1.33.5,2.48,1.21,3.44,2.13.97.91,1.74,2.03,2.32,3.34.57,1.31.92,2.75,1.02,4.33.29,4.05.48,7.98.59,11.76.11,3.79.02,7.69-.27,11.71-.07,1.26-.22,2.44-.43,3.55-.22,1.11-.59,2.19-1.13,3.23ZM735.44,267.29c-.14-1.26-.57-2.12-1.27-2.58-.7-.47-1.45-.62-2.26-.46-.81.16-1.53.6-2.18,1.32-.65.72-.97,1.61-.97,2.69.04,1.65.05,3.29.05,4.93s.02,3.31.05,5.03c0,1.76.35,3.02,1.05,3.8.7.77,1.46,1.14,2.29,1.1.83-.04,1.59-.44,2.29-1.21.7-.77,1.05-1.84,1.05-3.2.04-1.83.05-3.73.03-5.71-.02-1.97-.06-3.88-.13-5.71Z"/>
    <path class="st0" d="M314.1,344.02c-.05-4.25-.12-8.45-.21-12.59-.1-4.14-.17-8.33-.21-12.59v-1.82c.19-1.45.57-2.44,1.16-2.98.59-.54,1.58-.81,2.98-.81h7.29c2.39,0,4.82.05,7.29.14,1.5.09,2.99.19,4.49.28,1.5.09,2.99.3,4.49.63,4.07.8,7.38,2.44,9.93,4.95,2.55,2.5,4.36,5.74,5.44,9.71.89,2.95,1.48,5.93,1.79,8.94.3,3.02.34,6.09.11,9.22-.19,2.1-.6,4.2-1.23,6.28-.63,2.08-1.44,4.1-2.42,6.07-1.96,3.37-4.34,6.14-7.12,8.31-2.78,2.17-6.09,3.71-9.92,4.59-2.39.56-4.82.84-7.29.84-2.1-.05-4.17-.07-6.21-.07h-6.21c-1.5,0-2.56-.3-3.19-.91-.63-.61-.95-1.73-.95-3.37-.05-4.3-.06-8.49-.04-12.56.02-4.07.04-8.16.04-12.27ZM333.88,354.68c1.4.33,2.43.2,3.09-.38.66-.59,1.12-1.32,1.4-2.21.09-.51.2-1.02.32-1.51.12-.49.18-.99.18-1.51,0-3.13-.07-6.29-.21-9.47-.05-.7-.12-1.4-.21-2.1-.09-.7-.26-1.43-.49-2.17-.38-1.26-.9-2.26-1.58-2.98-.68-.72-1.77-.9-3.26-.53.09,3.6.22,7.4.39,11.4.16,4,.29,7.82.38,11.47Z"/>
    <path class="st0" d="M378.91,336.03c2.15.23,4.29.36,6.42.39,2.13.02,4.24.06,6.35.11,1.17.05,1.94.24,2.31.6s.61,1.06.7,2.14c.09,1.64.15,3.25.18,4.84.02,1.59.06,3.23.11,4.91,0,1.4-.68,2.2-2.03,2.39-.7.09-1.38.15-2.03.17-.66.02-1.33.04-2.03.04-1.64.1-3.24.12-4.8.07-1.57-.05-3.17-.07-4.8-.07v1.82c2.53.19,5.04.27,7.54.25,2.5-.02,5.02-.01,7.54.04.93,0,1.87.02,2.81.07.93.05,1.85.12,2.74.21,1.17.14,2.03.49,2.6,1.05.56.56.84,1.4.84,2.52.05,4.07.05,8.14,0,12.2-.05,2.29-1.31,3.44-3.79,3.44h-32.05c-1.54,0-2.69-.35-3.44-1.05-.75-.7-1.24-1.8-1.47-3.3-.14-1.36-.27-2.71-.39-4.07-.12-1.36-.15-2.74-.11-4.14.09-6.69.18-13.35.25-19.99.07-6.64.15-13.33.25-20.06v-.74c0-.26.05-.53.14-.81.19-2.01.71-3.44,1.58-4.28.87-.84,2.33-1.31,4.38-1.4,3.04-.05,6.02-.06,8.94-.04,2.92.02,5.9.01,8.94-.04,1.31,0,2.65-.04,4.03-.11,1.38-.07,2.75-.11,4.1-.11.93,0,1.86.02,2.77.07.91.05,1.81.12,2.7.21.75.05,1.3.28,1.65.7.35.42.6.89.74,1.4.14.37.22.8.24,1.26.02.47.06.91.11,1.33v10.94c-.05,1.5-.35,2.55-.91,3.15-.56.61-1.61.91-3.16.91-5.75-.05-11.55-.19-17.39-.42h-2.52v3.37Z"/>
    <path class="st0" d="M454.02,341.5c2.1.05,4.18.06,6.24.04,2.06-.02,4.09.04,6.1.18.98.05,1.72.27,2.21.67s.76,1.06.81,2c.05,1.78.06,3.51.04,5.19s-.08,3.41-.18,5.19c0,.8-.3,1.39-.91,1.79-.61.4-1.31.6-2.1.6-2.01.09-4.13.15-6.35.18-2.22.02-4.38.04-6.49.04.09,2.34.15,4.5.18,6.49.02,1.99.01,3.99-.04,6,0,.61-.05,1.1-.14,1.47-.09.37-.25.68-.46.91-.21.23-.5.41-.88.53-.37.12-.87.2-1.47.25-1.08.1-2.15.14-3.23.14h-3.23c-1.22,0-2.42-.01-3.61-.04-1.19-.02-2.4-.06-3.61-.11-.84,0-1.44-.15-1.79-.46-.35-.3-.57-.9-.67-1.79-.05-.33-.07-.68-.07-1.05v-1.19c.05-6.17.08-12.32.11-18.45.02-6.12.04-12.27.04-18.45,0-1.82-.01-3.68-.04-5.58-.02-1.89-.04-3.73-.04-5.51.05-.75.09-1.53.14-2.35.05-.82.19-1.55.42-2.21.23-.65.6-1.2,1.09-1.65.49-.44,1.16-.69,2-.74,2.71-.14,5.52-.23,8.42-.28,2.9-.05,5.82-.06,8.77-.04,2.95.02,5.87.06,8.77.11,2.9.05,5.7.05,8.42,0,.61,0,1.09.14,1.44.42.35.28.62.66.81,1.12.19.47.29.99.32,1.58.02.59.04,1.18.04,1.79-.1,2.38-.13,4.76-.11,7.12.02,2.36-.06,4.73-.25,7.12-.05.98-.29,1.65-.74,2-.44.35-1.23.55-2.35.6-2.9.05-5.9.07-9.01.07s-5.97.02-8.59.07v6.24Z"/>
    <path class="st0" d="M497.08,361.56c-.24,1.36-.42,2.61-.56,3.75-.14,1.15-.33,2.33-.56,3.54-.09.51-.19.98-.28,1.4-.1.42-.26.82-.49,1.19-.42,1.17-1.36,1.75-2.81,1.75-2.71-.05-5.41-.07-8.1-.07h-8.03c-.98,0-1.75-.23-2.32-.7-.56-.47-.84-1.17-.84-2.1,0-1.12.05-2.22.14-3.3.09-1.08.26-2.13.49-3.16,1.26-6.08,2.54-12.07,3.82-17.99,1.29-5.91,2.58-11.84,3.89-17.78.37-1.68.83-3.31,1.37-4.87.54-1.57,1.06-3.14,1.58-4.73.61-1.78,1.41-3,2.42-3.68,1-.68,2.44-1.02,4.31-1.02,3.09,0,6.15.01,9.19.04,3.04.02,6.08-.01,9.12-.11,1.4-.05,2.51.23,3.33.84.82.61,1.48,1.45,2,2.53.23.42.41.86.53,1.33s.25.96.39,1.47c.93,3.74,1.83,7.45,2.7,11.12.86,3.67,1.72,7.38,2.56,11.12.84,3.65,1.6,7.24,2.28,10.77.68,3.53,1.37,7.07,2.07,10.62.19.89.38,1.74.6,2.56s.43,1.62.67,2.42c.09.33.16.66.21.98.05.33.07.66.07.98.05,1.5-.63,2.27-2.03,2.31h-.7c-2.43.05-4.84.11-7.22.18-2.38.07-4.82.15-7.29.25-1.17.05-2.01-.13-2.52-.53-.51-.4-.89-1.16-1.12-2.28-.24-1.12-.42-2.22-.56-3.3-.14-1.08-.28-2.13-.42-3.16-.09-.51-.16-.96-.21-1.33-.05-.37-.12-.72-.21-1.05h-7.43ZM500.59,330.97c-.56,3.04-1.06,6.04-1.51,9.01-.44,2.97-.76,6-.95,9.08h4.91c-.42-3.13-.84-6.18-1.26-9.15-.42-2.97-.82-5.95-1.19-8.94Z"/>
    <path class="st0" d="M575.01,348.37c-.75,2.81-1.5,5.63-2.24,8.49-.75,2.85-1.52,5.73-2.32,8.63-.19.61-.35,1.09-.49,1.44s-.32.61-.53.77-.51.27-.91.31c-.4.05-.92.07-1.58.07-1.36,0-2.71.01-4.07.04-1.36.02-2.74.01-4.14-.04-.98,0-1.65-.12-2-.35-.35-.23-.64-.84-.88-1.82-.37-1.12-.69-2.27-.95-3.44-.26-1.17-.53-2.34-.81-3.51-.42-1.49-.84-2.97-1.26-4.42-.42-1.45-.82-2.92-1.19-4.42-.14-.47-.44-.86-.91-1.19.09.66.18,1.33.25,2.03.07.7.1,1.4.1,2.1.09,2.81.16,5.59.21,8.35.05,2.76.07,5.54.07,8.35,0,.7-.05,1.28-.14,1.72-.09.44-.27.77-.53.98-.26.21-.61.35-1.05.42-.44.07-1.04.11-1.79.11-2.43-.09-4.85-.14-7.26-.14h-7.26c-.75,0-1.34-.04-1.79-.11-.45-.07-.8-.22-1.05-.45s-.43-.56-.53-.98c-.1-.42-.14-.98-.14-1.68.05-4.25.11-8.46.18-12.62.07-4.16.13-8.37.18-12.63.05-2.76.06-5.48.04-8.17-.02-2.69-.04-5.39-.04-8.1-.05-1.78-.11-3.56-.18-5.36-.07-1.8-.11-3.61-.11-5.44,0-1.26.23-2.1.7-2.52.47-.42,1.33-.65,2.6-.7,2.95-.09,5.86-.18,8.73-.25,2.88-.07,5.79-.15,8.73-.25.84,0,1.53.04,2.07.11.54.07.98.23,1.33.49.35.26.66.62.91,1.09.26.47.53,1.12.81,1.96.93,2.95,1.85,5.87,2.74,8.77.89,2.9,1.8,5.8,2.74,8.7.14.42.28.82.42,1.19s.33.84.56,1.4c.47-1.4.9-2.69,1.3-3.86.4-1.17.81-2.34,1.23-3.51.79-2.34,1.57-4.65,2.32-6.94.75-2.29,1.47-4.58,2.17-6.87.42-1.03.82-1.68,1.19-1.96.37-.28,1.1-.42,2.17-.42,3.46-.05,6.91-.07,10.35-.07s6.86-.02,10.28-.07c.98,0,1.74.2,2.28.6.54.4.92,1.11,1.16,2.14.09.47.16.95.21,1.44.05.49.09,1.02.14,1.58v13.82c0,4.54-.02,9.12-.07,13.75,0,2.95-.06,5.88-.17,8.8-.12,2.92-.25,5.86-.39,8.8-.05.8-.02,1.62.07,2.49.09.87.14,1.74.14,2.63,0,.8-.04,1.44-.11,1.93s-.25.87-.53,1.12c-.28.26-.67.42-1.16.49s-1.14.11-1.93.11c-1.4,0-2.82-.04-4.24-.11-1.43-.07-2.82-.11-4.17-.11-.8-.05-1.53-.05-2.21,0-.68.05-1.41.09-2.21.14-.94.09-1.68.12-2.25.07-.56-.05-.99-.2-1.3-.46-.3-.26-.51-.65-.63-1.19-.12-.54-.18-1.27-.18-2.21-.1-2.95-.17-5.87-.21-8.77-.05-2.9-.09-5.77-.14-8.63-.05-.65-.06-1.27-.04-1.86.02-.58.04-1.16.04-1.72-.09-.05-.21-.07-.35-.07Z"/>
    <path class="st0" d="M658.26,351.46h7.43c1.08,0,1.83.22,2.28.67.44.44.71,1.21.81,2.28.09.51.14,1.03.14,1.54v7.96c0,2.13-.05,4.29-.14,6.49,0,1.08-.21,1.81-.63,2.21-.42.4-1.17.6-2.24.6h-17.15c-5.68,0-11.42-.05-17.22-.14-.23,0-.43.02-.6.07s-.36.07-.6.07c-.94-.09-1.6-.33-2-.7-.4-.37-.62-1.03-.67-1.96-.1-2.66-.19-5.3-.28-7.89-.1-2.59-.14-5.22-.14-7.89-.1-4.3-.1-8.58,0-12.83.09-4.25.14-8.56.14-12.9,0-2.01-.05-4.02-.14-6.03-.1-2.01-.19-4.02-.28-6.03-.05-1.4.18-2.36.67-2.88.49-.51,1.41-.75,2.77-.7,2.95,0,5.91.01,8.91.04,2.99.02,5.98.04,8.98.04,1.35.05,2.28.32,2.77.81.49.49.74,1.44.74,2.84-.05,3.97-.09,7.91-.14,11.82-.05,3.9-.09,7.8-.14,11.68-.09,1.78-.12,3.58-.07,5.4.05,1.82.07,3.65.07,5.47h6.73Z"/>
    <path class="st0" d="M695.36,366.75c0,.61-.02,1.23-.07,1.86-.05.63-.12,1.23-.21,1.79-.23.94-.61,1.6-1.12,2-.51.4-1.24.6-2.17.6h-15.08c-1.64,0-2.72-.28-3.26-.84-.54-.56-.83-1.71-.88-3.44-.1-8.04-.11-15.89-.04-23.53.07-7.65-.04-15.3-.32-22.97-.05-.93-.08-1.85-.11-2.74-.02-.89-.04-1.8-.04-2.74.05-1.22.29-2.02.74-2.42.44-.4,1.27-.6,2.49-.6,2.95,0,5.74-.01,8.38-.04,2.64-.02,5.41-.04,8.31-.04,1.31,0,2.16.2,2.56.6.4.4.6,1.23.6,2.49-.09,8.56-.06,16.97.11,25.25.16,8.28.2,16.53.11,24.76Z"/>
    <path class="st0" d="M722.93,361.56c-.24,1.36-.42,2.61-.56,3.75-.14,1.15-.33,2.33-.56,3.54-.09.51-.19.98-.28,1.4-.1.42-.26.82-.49,1.19-.42,1.17-1.36,1.75-2.81,1.75-2.71-.05-5.41-.07-8.1-.07h-8.03c-.98,0-1.75-.23-2.32-.7-.56-.47-.84-1.17-.84-2.1,0-1.12.05-2.22.14-3.3.09-1.08.26-2.13.49-3.16,1.26-6.08,2.54-12.07,3.82-17.99,1.29-5.91,2.58-11.84,3.89-17.78.37-1.68.83-3.31,1.37-4.87.54-1.57,1.06-3.14,1.58-4.73.61-1.78,1.41-3,2.42-3.68,1-.68,2.44-1.02,4.31-1.02,3.09,0,6.15.01,9.19.04,3.04.02,6.08-.01,9.12-.11,1.4-.05,2.51.23,3.33.84.82.61,1.48,1.45,2,2.53.23.42.41.86.53,1.33s.25.96.39,1.47c.93,3.74,1.83,7.45,2.7,11.12.86,3.67,1.72,7.38,2.56,11.12.84,3.65,1.6,7.24,2.28,10.77.68,3.53,1.37,7.07,2.07,10.62.19.89.38,1.74.6,2.56s.43,1.62.67,2.42c.09.33.16.66.21.98.05.33.07.66.07.98.05,1.5-.63,2.27-2.03,2.31h-.7c-2.43.05-4.84.11-7.22.18-2.38.07-4.82.15-7.29.25-1.17.05-2.01-.13-2.52-.53-.51-.4-.89-1.16-1.12-2.28-.24-1.12-.42-2.22-.56-3.3-.14-1.08-.28-2.13-.42-3.16-.09-.51-.16-.96-.21-1.33-.05-.37-.12-.72-.21-1.05h-7.43ZM726.43,330.97c-.56,3.04-1.06,6.04-1.51,9.01-.44,2.97-.76,6-.95,9.08h4.91c-.42-3.13-.84-6.18-1.26-9.15-.42-2.97-.82-5.95-1.19-8.94Z"/>
    <path class="st3" d="M653.3,293.67c-.04-.25-.09-.5-.16-.75-.18-.61-.35-1.23-.51-1.86-.16-.63-.31-1.28-.46-1.96-.54-2.73-1.07-5.44-1.59-8.15-.52-2.71-1.1-5.46-1.75-8.26-.65-2.87-1.3-5.71-1.97-8.53-.66-2.82-1.35-5.66-2.07-8.53-.11-.39-.21-.77-.3-1.13-.09-.36-.22-.7-.4-1.02-.39-.82-.91-1.47-1.53-1.94-.63-.47-1.48-.68-2.56-.65-.85.03-1.69.02-2.54.03.3-.18.59-.36.87-.55.54-.38,1.09-.78,1.54-1.27.68-.75,1.28-1.56,1.8-2.43.82-1.37,1.52-2.81,2.16-4.27.15-.33.29-.67.43-1,.21-.33.16-.57-.13-.71-.27-.28-.63-.38-1.07-.29-.67,0-1.33.08-1.98.24-.85.14-1.67.35-2.49.63-1.82.59-3.65,1.29-5.31,2.26-.44.27-.87.54-1.31.81-.61.37-1.11.85-1.51,1.43-.37.89-.77,1.77-1.19,2.63-.42.86-.86,1.73-1.36,2.57-.66,0-1.31,0-1.97,0-1.43,0-2.54.26-3.31.78-.77.52-1.39,1.46-1.86,2.83-.39,1.22-.8,2.43-1.21,3.63-.41,1.2-.76,2.45-1.05,3.74-1,4.56-2,9.1-2.99,13.64-.99,4.54-1.96,9.14-2.93,13.81-.18.79-.31,1.6-.38,2.42-.07.83-.11,1.67-.11,2.53,0,.72.22,1.26.65,1.61.43.36,1.02.54,1.78.54h6.16c2.06,0,4.13.02,6.22.05,1.11,0,1.83-.45,2.15-1.35.18-.29.3-.59.38-.92.07-.32.14-.68.22-1.08.18-.93.32-1.84.43-2.72.11-.88.25-1.84.43-2.88h5.71c.07.25.13.52.16.81.04.29.09.63.16,1.02.11.79.21,1.6.32,2.42.11.83.25,1.67.43,2.53s.47,1.45.86,1.75c.39.31,1.04.44,1.94.4,1.9-.07,3.77-.13,5.6-.19,1.83-.05,3.68-.1,5.54-.13h.54c1.08-.04,1.6-.63,1.56-1.78,0-.25-.02-.5-.05-.75ZM631.34,278c.14-2.37.39-4.69.73-6.97.34-2.28.73-4.58,1.16-6.92.29,2.3.59,4.58.92,6.86.32,2.28.65,4.62.97,7.02h-3.77Z"/>
    <path class="st0" d="M626.96,301.67c-.41-.43-.95-.57-1.6-.44-1,0-1.99.12-2.97.35-1.27.21-2.51.53-3.73.94-2.73.89-5.48,1.94-7.97,3.39-.66.4-1.31.81-1.97,1.21-.91.56-1.67,1.27-2.27,2.14-.37.89-.77,1.77-1.19,2.63-.29.6-.6,1.21-.92,1.81-.27,0-.52,0-.8,0-1.22,0-2.05.2-2.49.6-.45.4-.69,1.21-.74,2.42,0,.94.01,1.85.04,2.74.02.89.06,1.8.11,2.74.28,7.67.39,15.33.32,22.97-.07,7.65-.06,15.49.04,23.53.05,1.73.34,2.88.88,3.44.54.56,1.62.84,3.26.84h15.08c.93,0,1.66-.2,2.17-.6.51-.4.89-1.06,1.12-2,.09-.56.16-1.16.21-1.79.05-.63.07-1.25.07-1.86.09-8.23.06-16.48-.11-24.76-.16-8.28-.2-16.69-.11-25.25,0-1.26-.2-2.09-.6-2.49-.4-.4-1.25-.6-2.56-.6-.6,0-1.16,0-1.75,0,.68-.38,1.34-.78,1.98-1.23.58-.41,1.16-.86,1.69-1.33.12-.1.23-.21.33-.33.78-.85,1.48-1.77,2.07-2.76.82-1.37,1.52-2.81,2.16-4.27.15-.33.29-.67.43-1,.31-.5.24-.85-.2-1.06Z"/>
  </g>
</svg>